<svg data-v-423bf9ae="" xmlns="http://www.w3.org/2000/svg" viewBox="0 0 794.1264174757578 60" class="font"><!----><!----><!----><g data-v-423bf9ae="" id="14efc5af-e99d-4c2d-88ae-7b6faac85dec" fill="white" transform="matrix(4.922067437685127,0,0,4.922067437685127,-0.7383184984910258,-3.937654664474813)"><path d="M0.15 1.36L7.14 1.36L7.14 2.60L4.33 2.60L4.33 10.50L2.93 10.50L2.93 2.60L0.15 2.60L0.15 1.36ZM10.67 10.67L10.67 10.67L10.67 10.67Q9.46 10.67 8.71 10.31L8.71 10.31L8.71 10.31Q7.97 9.95 7.55 9.39L7.55 9.39L7.55 9.39Q7.13 8.83 6.97 8.14L6.97 8.14L6.97 8.14Q6.82 7.45 6.82 6.78L6.82 6.78L6.82 6.78Q6.82 6.10 7.04 5.46L7.04 5.46L7.04 5.46Q7.25 4.82 7.67 4.31L7.67 4.31L7.67 4.31Q8.08 3.81 8.68 3.50L8.68 3.50L8.68 3.50Q9.28 3.19 10.07 3.19L10.07 3.19L10.07 3.19Q11.00 3.19 11.63 3.52L11.63 3.52L11.63 3.52Q12.26 3.85 12.64 4.38L12.64 4.38L12.64 4.38Q13.02 4.90 13.17 5.54L13.17 5.54L13.17 5.54Q13.33 6.17 13.33 6.78L13.33 6.78L13.33 7.22L8.22 7.22L8.22 7.22Q8.27 7.90 8.53 8.41L8.53 8.41L8.53 8.41Q8.64 8.64 8.81 8.86L8.81 8.86L8.81 8.86Q8.97 9.07 9.22 9.24L9.22 9.24L9.22 9.24Q9.46 9.41 9.79 9.51L9.79 9.51L9.79 9.51Q10.11 9.60 10.53 9.60L10.53 9.60L10.53 9.60Q10.98 9.60 11.38 9.50L11.38 9.50L11.38 9.50Q11.77 9.39 12.08 9.27L12.08 9.27L12.08 9.27Q12.45 9.11 12.75 8.92L12.75 8.92L12.77 10.12L12.77 10.12Q12.77 10.12 12.61 10.21L12.61 10.21L12.61 10.21Q12.45 10.30 12.17 10.40L12.17 10.40L12.17 10.40Q11.89 10.50 11.50 10.58L11.50 10.58L11.50 10.58Q11.12 10.67 10.67 10.67ZM8.22 6.24L11.93 6.24L11.93 6.24Q11.93 5.89 11.82 5.54L11.82 5.54L11.82 5.54Q11.72 5.18 11.49 4.89L11.49 4.89L11.49 4.89Q11.27 4.61 10.92 4.43L10.92 4.43L10.92 4.43Q10.57 4.26 10.07 4.26L10.07 4.26L10.07 4.26Q9.63 4.26 9.29 4.43L9.29 4.43L9.29 4.43Q8.95 4.61 8.71 4.89L8.71 4.89L8.71 4.89Q8.47 5.18 8.34 5.54L8.34 5.54L8.34 5.54Q8.22 5.89 8.22 6.24L8.22 6.24ZM17.58 9.52L17.58 10.50L17.58 10.50Q17.36 10.58 17.08 10.63L17.08 10.63L17.08 10.63Q16.80 10.67 16.56 10.67L16.56 10.67L16.56 10.67Q15.85 10.67 15.47 10.25L15.47 10.25L15.47 10.25Q15.09 9.83 15.09 9.03L15.09 9.03L15.09 1.62L16.41 1.62L16.41 9.00L16.41 9.00Q16.41 9.30 16.51 9.44L16.51 9.44L16.51 9.44Q16.62 9.59 16.87 9.59L16.87 9.59L16.87 9.59Q17.01 9.59 17.24 9.57L17.24 9.57L17.24 9.57Q17.47 9.55 17.58 9.52L17.58 9.52ZM21.90 9.52L21.90 10.50L21.90 10.50Q21.67 10.58 21.39 10.63L21.39 10.63L21.39 10.63Q21.11 10.67 20.87 10.67L20.87 10.67L20.87 10.67Q20.16 10.67 19.78 10.25L19.78 10.25L19.78 10.25Q19.40 9.83 19.40 9.03L19.40 9.03L19.40 1.62L20.72 1.62L20.72 9.00L20.72 9.00Q20.72 9.30 20.83 9.44L20.83 9.44L20.83 9.44Q20.93 9.59 21.18 9.59L21.18 9.59L21.18 9.59Q21.32 9.59 21.55 9.57L21.55 9.57L21.55 9.57Q21.78 9.55 21.90 9.52L21.90 9.52ZM30.42 3.19L30.42 3.19L30.42 3.19Q31.19 3.23 31.79 3.51L31.79 3.51L31.79 3.51Q32.05 3.64 32.30 3.82L32.30 3.82L32.30 3.82Q32.55 4.00 32.75 4.27L32.75 4.27L32.75 4.27Q32.94 4.54 33.06 4.89L33.06 4.89L33.06 4.89Q33.18 5.25 33.18 5.73L33.18 5.73L33.18 10.50L31.95 10.50L31.78 9.63L31.78 9.63Q31.78 9.63 31.64 9.80L31.64 9.80L31.64 9.80Q31.50 9.97 31.23 10.16L31.23 10.16L31.23 10.16Q30.97 10.35 30.58 10.51L30.58 10.51L30.58 10.51Q30.20 10.67 29.72 10.67L29.72 10.67L29.72 10.67Q28.56 10.67 27.85 10.14L27.85 10.14L27.85 10.14Q27.13 9.62 27.13 8.46L27.13 8.46L27.13 8.46Q27.13 7.78 27.45 7.34L27.45 7.34L27.45 7.34Q27.78 6.90 28.25 6.64L28.25 6.64L28.25 6.64Q28.71 6.38 29.24 6.29L29.24 6.29L29.24 6.29Q29.76 6.19 30.17 6.19L30.17 6.19L31.86 6.19L31.86 5.71L31.86 5.71Q31.81 5.07 31.52 4.75L31.52 4.75L31.52 4.75Q31.23 4.42 30.82 4.32L30.82 4.32L30.82 4.32Q30.41 4.21 29.93 4.29L29.93 4.29L29.93 4.29Q29.44 4.37 29.02 4.50L29.02 4.50L29.02 4.50Q28.60 4.63 28.29 4.78L28.29 4.78L28.29 4.78Q27.99 4.93 27.90 4.98L27.90 4.98L27.90 3.86L27.90 3.86Q28.29 3.68 28.71 3.53L28.71 3.53L28.71 3.53Q29.08 3.40 29.53 3.30L29.53 3.30L29.53 3.30Q29.97 3.19 30.42 3.19ZM29.83 9.60L29.83 9.60L29.83 9.60Q30.67 9.60 31.21 9.21L31.21 9.21L31.21 9.21Q31.74 8.81 31.86 8.16L31.86 8.16L31.86 7.14L31.12 7.14L31.12 7.14Q30.86 7.14 30.42 7.16L30.42 7.16L30.42 7.16Q29.97 7.18 29.55 7.29L29.55 7.29L29.55 7.29Q29.13 7.41 28.83 7.67L28.83 7.67L28.83 7.67Q28.52 7.92 28.52 8.40L28.52 8.40L28.52 8.40Q28.52 8.69 28.64 8.92L28.64 8.92L28.64 8.92Q28.77 9.14 28.96 9.30L28.96 9.30L28.96 9.30Q29.15 9.45 29.39 9.53L29.39 9.53L29.39 9.53Q29.62 9.60 29.83 9.60ZM43.48 3.91L43.05 4.89L43.05 4.89Q42.22 4.26 41.31 4.26L41.31 4.26L41.31 4.26Q40.81 4.26 40.51 4.46L40.51 4.46L40.51 4.46Q40.21 4.66 40.21 5.15L40.21 5.15L40.21 5.15Q40.21 5.40 40.33 5.58L40.33 5.58L40.33 5.58Q40.45 5.75 40.64 5.88L40.64 5.88L40.64 5.88Q40.84 6.01 41.09 6.10L41.09 6.10L41.09 6.10Q41.34 6.20 41.62 6.30L41.62 6.30L41.62 6.30Q41.99 6.43 42.36 6.58L42.36 6.58L42.36 6.58Q42.74 6.73 43.04 6.98L43.04 6.98L43.04 6.98Q43.34 7.22 43.53 7.59L43.53 7.59L43.53 7.59Q43.72 7.97 43.72 8.54L43.72 8.54L43.72 8.54Q43.72 9.09 43.52 9.49L43.52 9.49L43.52 9.49Q43.32 9.90 42.97 10.16L42.97 10.16L42.97 10.16Q42.63 10.42 42.19 10.54L42.19 10.54L42.19 10.54Q41.75 10.67 41.29 10.67L41.29 10.67L41.29 10.67Q40.59 10.67 39.91 10.39L39.91 10.39L39.91 10.39Q39.24 10.11 38.77 9.58L38.77 9.58L39.19 8.65L39.19 8.65Q39.63 9.10 40.20 9.35L40.20 9.35L40.20 9.35Q40.77 9.60 41.31 9.60L41.31 9.60L41.31 9.60Q41.85 9.60 42.19 9.39L42.19 9.39L42.19 9.39Q42.53 9.17 42.55 8.67L42.55 8.67L42.55 8.67Q42.55 8.40 42.43 8.20L42.43 8.20L42.43 8.20Q42.31 8.01 42.11 7.86L42.11 7.86L42.11 7.86Q41.92 7.71 41.65 7.61L41.65 7.61L41.65 7.61Q41.38 7.50 41.10 7.39L41.10 7.39L41.10 7.39Q40.74 7.27 40.38 7.11L40.38 7.11L40.38 7.11Q40.01 6.96 39.72 6.72L39.72 6.72L39.72 6.72Q39.42 6.48 39.24 6.12L39.24 6.12L39.24 6.12Q39.06 5.75 39.06 5.22L39.06 5.22L39.06 5.22Q39.06 4.68 39.25 4.29L39.25 4.29L39.25 4.29Q39.44 3.91 39.76 3.66L39.76 3.66L39.76 3.66Q40.08 3.42 40.50 3.30L40.50 3.30L40.50 3.30Q40.92 3.19 41.38 3.19L41.38 3.19L41.38 3.19Q41.96 3.19 42.50 3.38L42.50 3.38L42.50 3.38Q43.04 3.57 43.48 3.91L43.48 3.91ZM49.39 5.12L47.50 5.12L47.50 8.46L47.50 8.46Q47.50 9.59 48.47 9.59L48.47 9.59L48.47 9.59Q48.87 9.59 49.29 9.38L49.29 9.38L49.29 10.40L49.29 10.40Q48.72 10.67 48.08 10.67L48.08 10.67L48.08 10.67Q47.15 10.67 46.64 10.14L46.64 10.14L46.64 10.14Q46.13 9.62 46.13 8.60L46.13 8.60L46.13 5.12L44.86 5.12L44.86 4.05L46.13 4.05L46.13 1.95L47.50 1.62L47.50 4.05L49.39 4.05L49.39 5.12ZM54.19 3.19L54.19 3.19L54.19 3.19Q54.74 3.19 55.38 3.35L55.38 3.35L55.38 3.35Q56.01 3.51 56.56 3.93L56.56 3.93L56.56 3.93Q57.11 4.35 57.48 5.08L57.48 5.08L57.48 5.08Q57.85 5.81 57.85 6.94L57.85 6.94L57.85 6.94Q57.85 8.08 57.48 8.80L57.48 8.80L57.48 8.80Q57.11 9.52 56.56 9.93L56.56 9.93L56.56 9.93Q56.01 10.35 55.38 10.51L55.38 10.51L55.38 10.51Q54.74 10.67 54.19 10.67L54.19 10.67L54.19 10.67Q53.66 10.67 53.03 10.51L53.03 10.51L53.03 10.51Q52.40 10.35 51.86 9.93L51.86 9.93L51.86 9.93Q51.31 9.52 50.95 8.80L50.95 8.80L50.95 8.80Q50.58 8.08 50.58 6.94L50.58 6.94L50.58 6.94Q50.58 5.81 50.95 5.08L50.95 5.08L50.95 5.08Q51.31 4.35 51.86 3.93L51.86 3.93L51.86 3.93Q52.40 3.51 53.03 3.35L53.03 3.35L53.03 3.35Q53.66 3.19 54.19 3.19ZM54.19 9.60L54.19 9.60L54.19 9.60Q54.66 9.60 55.07 9.44L55.07 9.44L55.07 9.44Q55.48 9.28 55.78 8.95L55.78 8.95L55.78 8.95Q56.08 8.61 56.27 8.11L56.27 8.11L56.27 8.11Q56.45 7.62 56.45 6.94L56.45 6.94L56.45 6.94Q56.45 6.27 56.27 5.77L56.27 5.77L56.27 5.77Q56.08 5.26 55.78 4.93L55.78 4.93L55.78 4.93Q55.48 4.59 55.07 4.42L55.07 4.42L55.07 4.42Q54.66 4.26 54.19 4.26L54.19 4.26L54.19 4.26Q53.75 4.26 53.35 4.42L53.35 4.42L53.35 4.42Q52.95 4.59 52.65 4.93L52.65 4.93L52.65 4.93Q52.35 5.26 52.17 5.77L52.17 5.77L52.17 5.77Q52.00 6.27 52.00 6.94L52.00 6.94L52.00 6.94Q52.00 7.62 52.17 8.11L52.17 8.11L52.17 8.11Q52.35 8.61 52.65 8.95L52.65 8.95L52.65 8.95Q52.95 9.28 53.35 9.44L53.35 9.44L53.35 9.44Q53.75 9.60 54.19 9.60ZM63.60 3.30L63.60 4.47L63.60 4.47Q63.50 4.44 63.39 4.41L63.39 4.41L63.39 4.41Q63.29 4.38 63.18 4.36L63.18 4.36L63.18 4.36Q63.06 4.34 62.94 4.34L62.94 4.34L62.94 4.34Q62.34 4.34 61.95 4.61L61.95 4.61L61.95 4.61Q61.56 4.89 61.33 5.31L61.33 5.31L61.33 5.31Q61.11 5.73 61.02 6.24L61.02 6.24L61.02 6.24Q60.93 6.76 60.93 7.25L60.93 7.25L60.93 10.50L59.61 10.50L59.61 3.36L60.73 3.36L60.89 4.47L60.89 4.47Q61.08 4.12 61.32 3.84L61.32 3.84L61.32 3.84Q61.56 3.57 61.88 3.40L61.88 3.40L61.88 3.40Q62.20 3.23 62.62 3.20L62.62 3.20L62.62 3.20Q63.04 3.16 63.60 3.30L63.60 3.30ZM69.29 3.36L70.80 3.36L68.12 10.12L68.12 10.12Q67.82 10.93 67.33 11.56L67.33 11.56L67.33 11.56Q67.12 11.83 66.84 12.09L66.84 12.09L66.84 12.09Q66.56 12.35 66.21 12.54L66.21 12.54L66.21 12.54Q65.86 12.74 65.44 12.87L65.44 12.87L65.44 12.87Q65.02 12.99 64.51 12.99L64.51 12.99L64.51 11.90L64.51 11.90Q65.25 11.90 65.70 11.62L65.70 11.62L65.70 11.62Q66.14 11.34 66.37 10.99L66.37 10.99L66.37 10.99Q66.64 10.60 66.75 10.08L66.75 10.08L64.04 3.36L65.55 3.36L67.45 9.18L69.29 3.36ZM85.02 3.36L86.39 3.36L84.10 10.50L82.57 10.50L80.77 4.54L78.90 10.50L77.38 10.50L75.14 3.36L76.55 3.36L78.15 9.28L78.15 9.28Q78.34 8.61 78.58 7.85L78.58 7.85L78.58 7.85Q78.82 7.10 79.07 6.32L79.07 6.32L79.07 6.32Q79.32 5.54 79.56 4.79L79.56 4.79L79.56 4.79Q79.80 4.03 80.00 3.36L80.00 3.36L81.56 3.36L83.36 9.28L85.02 3.36ZM89.28 3.36L89.28 10.50L87.96 10.50L87.96 3.36L89.28 3.36ZM89.46 1.65L89.46 1.65L89.46 1.65Q89.46 2.02 89.21 2.27L89.21 2.27L89.21 2.27Q88.96 2.52 88.61 2.52L88.61 2.52L88.61 2.52Q88.24 2.52 87.99 2.27L87.99 2.27L87.99 2.27Q87.74 2.02 87.74 1.65L87.74 1.65L87.74 1.65Q87.74 1.30 87.99 1.05L87.99 1.05L87.99 1.05Q88.24 0.80 88.61 0.80L88.61 0.80L88.61 0.80Q88.96 0.80 89.21 1.05L89.21 1.05L89.21 1.05Q89.46 1.30 89.46 1.65ZM95.56 5.12L93.67 5.12L93.67 8.46L93.67 8.46Q93.67 9.59 94.64 9.59L94.64 9.59L94.64 9.59Q95.05 9.59 95.47 9.38L95.47 9.38L95.47 10.40L95.47 10.40Q94.89 10.67 94.25 10.67L94.25 10.67L94.25 10.67Q93.32 10.67 92.81 10.14L92.81 10.14L92.81 10.14Q92.30 9.62 92.30 8.60L92.30 8.60L92.30 5.12L91.03 5.12L91.03 4.05L92.30 4.05L92.30 1.95L93.67 1.62L93.67 4.05L95.56 4.05L95.56 5.12ZM100.87 3.19L100.87 3.19L100.87 3.19Q102.27 3.19 102.91 4.02L102.91 4.02L102.91 4.02Q103.56 4.84 103.56 6.37L103.56 6.37L103.56 10.50L102.23 10.50L102.23 6.73L102.23 6.73Q102.23 5.46 101.91 4.86L101.91 4.86L101.91 4.86Q101.58 4.26 100.77 4.26L100.77 4.26L100.77 4.26Q100.21 4.26 99.80 4.47L99.80 4.47L99.80 4.47Q99.39 4.68 99.11 5.06L99.11 5.06L99.11 5.06Q98.83 5.45 98.69 5.99L98.69 5.99L98.69 5.99Q98.55 6.52 98.55 7.18L98.55 7.18L98.55 10.50L97.23 10.50L97.23 1.62L98.55 1.62L98.55 4.49L98.55 4.49Q98.88 3.92 99.53 3.56L99.53 3.56L99.53 3.56Q100.17 3.19 100.87 3.19ZM111.23 3.36L111.23 10.50L109.91 10.50L109.91 3.36L111.23 3.36ZM111.41 1.65L111.41 1.65L111.41 1.65Q111.41 2.02 111.16 2.27L111.16 2.27L111.16 2.27Q110.91 2.52 110.56 2.52L110.56 2.52L110.56 2.52Q110.19 2.52 109.94 2.27L109.94 2.27L109.94 2.27Q109.69 2.02 109.69 1.65L109.69 1.65L109.69 1.65Q109.69 1.30 109.94 1.05L109.94 1.05L109.94 1.05Q110.19 0.80 110.56 0.80L110.56 0.80L110.56 0.80Q110.91 0.80 111.16 1.05L111.16 1.05L111.16 1.05Q111.41 1.30 111.41 1.65ZM121.38 3.19L121.38 3.19L121.38 3.19Q121.90 3.19 122.36 3.31L122.36 3.31L122.36 3.31Q122.82 3.43 123.16 3.78L123.16 3.78L123.16 3.78Q123.51 4.13 123.70 4.77L123.70 4.77L123.70 4.77Q123.90 5.40 123.90 6.43L123.90 6.43L123.90 10.50L122.57 10.50L122.57 6.29L122.57 6.29Q122.57 5.95 122.53 5.59L122.53 5.59L122.53 5.59Q122.49 5.24 122.35 4.93L122.35 4.93L122.35 4.93Q122.22 4.63 121.97 4.45L121.97 4.45L121.97 4.45Q121.72 4.26 121.31 4.26L121.31 4.26L121.31 4.26Q120.79 4.26 120.44 4.49L120.44 4.49L120.44 4.49Q120.08 4.72 119.85 5.10L119.85 5.10L119.85 5.10Q119.63 5.47 119.53 5.96L119.53 5.96L119.53 5.96Q119.43 6.45 119.43 6.96L119.43 6.96L119.43 10.50L118.10 10.50L118.10 6.29L118.10 6.29Q118.10 5.95 118.06 5.59L118.06 5.59L118.06 5.59Q118.02 5.24 117.88 4.93L117.88 4.93L117.88 4.93Q117.74 4.63 117.49 4.45L117.49 4.45L117.49 4.45Q117.25 4.26 116.84 4.26L116.84 4.26L116.84 4.26Q116.33 4.26 115.97 4.49L115.97 4.49L115.97 4.49Q115.61 4.72 115.39 5.10L115.39 5.10L115.39 5.10Q115.16 5.47 115.07 5.96L115.07 5.96L115.07 5.96Q114.97 6.45 114.97 6.96L114.97 6.96L114.97 10.50L113.65 10.50L113.65 3.36L114.74 3.36L114.95 4.41L114.95 4.41Q114.95 4.41 115.07 4.21L115.07 4.21L115.07 4.21Q115.18 4.02 115.44 3.79L115.44 3.79L115.44 3.79Q115.70 3.57 116.12 3.38L116.12 3.38L116.12 3.38Q116.55 3.19 117.18 3.19L117.18 3.19L117.18 3.19Q117.73 3.19 118.12 3.41L118.12 3.41L118.12 3.41Q118.51 3.63 118.75 3.89L118.75 3.89L118.75 3.89Q119 4.16 119.10 4.38L119.10 4.38L119.10 4.38Q119.21 4.59 119.21 4.59L119.21 4.59L119.21 4.59Q119.35 4.26 119.59 3.99L119.59 3.99L119.59 3.99Q119.84 3.72 120.13 3.55L120.13 3.55L120.13 3.55Q120.43 3.37 120.76 3.28L120.76 3.28L120.76 3.28Q121.09 3.19 121.38 3.19ZM128.95 3.19L128.95 3.19L128.95 3.19Q129.72 3.23 130.33 3.51L130.33 3.51L130.33 3.51Q130.58 3.64 130.83 3.82L130.83 3.82L130.83 3.82Q131.08 4.00 131.28 4.27L131.28 4.27L131.28 4.27Q131.47 4.54 131.59 4.89L131.59 4.89L131.59 4.89Q131.71 5.25 131.71 5.73L131.71 5.73L131.71 10.50L130.48 10.50L130.31 9.63L130.31 9.63Q130.31 9.63 130.17 9.80L130.17 9.80L130.17 9.80Q130.03 9.97 129.77 10.16L129.77 10.16L129.77 10.16Q129.50 10.35 129.12 10.51L129.12 10.51L129.12 10.51Q128.73 10.67 128.25 10.67L128.25 10.67L128.25 10.67Q127.09 10.67 126.38 10.14L126.38 10.14L126.38 10.14Q125.66 9.62 125.66 8.46L125.66 8.46L125.66 8.46Q125.66 7.78 125.99 7.34L125.99 7.34L125.99 7.34Q126.31 6.90 126.78 6.64L126.78 6.64L126.78 6.64Q127.25 6.38 127.77 6.29L127.77 6.29L127.77 6.29Q128.30 6.19 128.70 6.19L128.70 6.19L130.40 6.19L130.40 5.71L130.40 5.71Q130.34 5.07 130.05 4.75L130.05 4.75L130.05 4.75Q129.77 4.42 129.35 4.32L129.35 4.32L129.35 4.32Q128.94 4.21 128.46 4.29L128.46 4.29L128.46 4.29Q127.97 4.37 127.55 4.50L127.55 4.50L127.55 4.50Q127.13 4.63 126.83 4.78L126.83 4.78L126.83 4.78Q126.52 4.93 126.43 4.98L126.43 4.98L126.43 3.86L126.43 3.86Q126.83 3.68 127.25 3.53L127.25 3.53L127.25 3.53Q127.61 3.40 128.06 3.30L128.06 3.30L128.06 3.30Q128.51 3.19 128.95 3.19ZM128.37 9.60L128.37 9.60L128.37 9.60Q129.21 9.60 129.74 9.21L129.74 9.21L129.74 9.21Q130.27 8.81 130.40 8.16L130.40 8.16L130.40 7.14L129.65 7.14L129.65 7.14Q129.39 7.14 128.95 7.16L128.95 7.16L128.95 7.16Q128.51 7.18 128.09 7.29L128.09 7.29L128.09 7.29Q127.67 7.41 127.36 7.67L127.36 7.67L127.36 7.67Q127.05 7.92 127.05 8.40L127.05 8.40L127.05 8.40Q127.05 8.69 127.18 8.92L127.18 8.92L127.18 8.92Q127.30 9.14 127.49 9.30L127.49 9.30L127.49 9.30Q127.68 9.45 127.92 9.53L127.92 9.53L127.92 9.53Q128.16 9.60 128.37 9.60ZM139.13 3.36L140.27 3.36L140.27 9.48L140.27 9.48Q140.27 10.23 140.08 10.88L140.08 10.88L140.08 10.88Q139.89 11.52 139.45 11.99L139.45 11.99L139.45 11.99Q139.01 12.46 138.27 12.73L138.27 12.73L138.27 12.73Q137.54 12.99 136.44 12.99L136.44 12.99L136.44 12.99Q136.00 12.99 135.60 12.91L135.60 12.91L135.60 12.91Q135.20 12.84 134.88 12.73L134.88 12.73L134.88 12.73Q134.51 12.60 134.19 12.45L134.19 12.45L134.01 11.28L134.01 11.28Q134.30 11.47 134.68 11.61L134.68 11.61L134.68 11.61Q135.00 11.73 135.45 11.83L135.45 11.83L135.45 11.83Q135.90 11.93 136.44 11.93L136.44 11.93L136.44 11.93Q137.38 11.93 137.89 11.67L137.89 11.67L137.89 11.67Q138.40 11.41 138.64 11.03L138.64 11.03L138.64 11.03Q138.88 10.64 138.91 10.19L138.91 10.19L138.91 10.19Q138.95 9.73 138.95 9.35L138.95 9.35L138.95 9.35Q138.50 9.95 137.95 10.23L137.95 10.23L137.95 10.23Q137.40 10.50 136.67 10.50L136.67 10.50L136.67 10.50Q136.05 10.50 135.48 10.27L135.48 10.27L135.48 10.27Q134.90 10.04 134.46 9.58L134.46 9.58L134.46 9.58Q134.01 9.11 133.74 8.44L133.74 8.44L133.74 8.44Q133.48 7.76 133.48 6.85L133.48 6.85L133.48 6.85Q133.48 5.95 133.74 5.27L133.74 5.27L133.74 5.27Q134.01 4.59 134.46 4.13L134.46 4.13L134.46 4.13Q134.90 3.67 135.48 3.43L135.48 3.43L135.48 3.43Q136.05 3.19 136.67 3.19L136.67 3.19L136.67 3.19Q137.37 3.19 137.81 3.38L137.81 3.38L137.81 3.38Q138.25 3.57 138.50 3.81L138.50 3.81L138.50 3.81Q138.80 4.07 138.95 4.42L138.95 4.42L139.13 3.36ZM136.91 9.44L136.91 9.44L136.91 9.44Q137.37 9.44 137.75 9.23L137.75 9.23L137.75 9.23Q138.12 9.03 138.39 8.68L138.39 8.68L138.39 8.68Q138.66 8.33 138.80 7.85L138.80 7.85L138.80 7.85Q138.95 7.38 138.95 6.85L138.95 6.85L138.95 6.85Q138.95 6.31 138.80 5.84L138.80 5.84L138.80 5.84Q138.66 5.38 138.39 5.02L138.39 5.02L138.39 5.02Q138.12 4.66 137.75 4.46L137.75 4.46L137.75 4.46Q137.37 4.26 136.91 4.26L136.91 4.26L136.91 4.26Q136.46 4.26 136.08 4.46L136.08 4.46L136.08 4.46Q135.70 4.66 135.44 5.02L135.44 5.02L135.44 5.02Q135.17 5.38 135.02 5.84L135.02 5.84L135.02 5.84Q134.88 6.31 134.88 6.85L134.88 6.85L134.88 6.85Q134.88 7.38 135.02 7.85L135.02 7.85L135.02 7.85Q135.17 8.33 135.44 8.68L135.44 8.68L135.44 8.68Q135.70 9.03 136.08 9.23L136.08 9.23L136.08 9.23Q136.46 9.44 136.91 9.44ZM145.88 10.67L145.88 10.67L145.88 10.67Q144.68 10.67 143.93 10.31L143.93 10.31L143.93 10.31Q143.18 9.95 142.76 9.39L142.76 9.39L142.76 9.39Q142.34 8.83 142.18 8.14L142.18 8.14L142.18 8.14Q142.03 7.45 142.03 6.78L142.03 6.78L142.03 6.78Q142.03 6.10 142.25 5.46L142.25 5.46L142.25 5.46Q142.46 4.82 142.88 4.31L142.88 4.31L142.88 4.31Q143.29 3.81 143.89 3.50L143.89 3.50L143.89 3.50Q144.49 3.19 145.28 3.19L145.28 3.19L145.28 3.19Q146.22 3.19 146.85 3.52L146.85 3.52L146.85 3.52Q147.48 3.85 147.85 4.38L147.85 4.38L147.85 4.38Q148.23 4.90 148.39 5.54L148.39 5.54L148.39 5.54Q148.54 6.17 148.54 6.78L148.54 6.78L148.54 7.22L143.43 7.22L143.43 7.22Q143.49 7.90 143.74 8.41L143.74 8.41L143.74 8.41Q143.85 8.64 144.02 8.86L144.02 8.86L144.02 8.86Q144.19 9.07 144.43 9.24L144.43 9.24L144.43 9.24Q144.68 9.41 145.00 9.51L145.00 9.51L145.00 9.51Q145.32 9.60 145.74 9.60L145.74 9.60L145.74 9.60Q146.19 9.60 146.59 9.50L146.59 9.50L146.59 9.50Q146.99 9.39 147.29 9.27L147.29 9.27L147.29 9.27Q147.66 9.11 147.97 8.92L147.97 8.92L147.98 10.12L147.98 10.12Q147.98 10.12 147.82 10.21L147.82 10.21L147.82 10.21Q147.66 10.30 147.38 10.40L147.38 10.40L147.38 10.40Q147.10 10.50 146.71 10.58L146.71 10.58L146.71 10.58Q146.33 10.67 145.88 10.67ZM143.43 6.24L147.14 6.24L147.14 6.24Q147.14 5.89 147.03 5.54L147.03 5.54L147.03 5.54Q146.93 5.18 146.71 4.89L146.71 4.89L146.71 4.89Q146.48 4.61 146.13 4.43L146.13 4.43L146.13 4.43Q145.78 4.26 145.28 4.26L145.28 4.26L145.28 4.26Q144.84 4.26 144.50 4.43L144.50 4.43L144.50 4.43Q144.16 4.61 143.92 4.89L143.92 4.89L143.92 4.89Q143.68 5.18 143.56 5.54L143.56 5.54L143.56 5.54Q143.43 5.89 143.43 6.24L143.43 6.24ZM154.29 3.30L154.29 4.47L154.29 4.47Q154.20 4.44 154.08 4.41L154.08 4.41L154.08 4.41Q153.99 4.38 153.87 4.36L153.87 4.36L153.87 4.36Q153.75 4.34 153.64 4.34L153.64 4.34L153.64 4.34Q153.03 4.34 152.64 4.61L152.64 4.61L152.64 4.61Q152.25 4.89 152.03 5.31L152.03 5.31L152.03 5.31Q151.80 5.73 151.71 6.24L151.71 6.24L151.71 6.24Q151.62 6.76 151.62 7.25L151.62 7.25L151.62 10.50L150.30 10.50L150.30 3.36L151.42 3.36L151.58 4.47L151.58 4.47Q151.77 4.12 152.01 3.84L152.01 3.84L152.01 3.84Q152.25 3.57 152.57 3.40L152.57 3.40L152.57 3.40Q152.89 3.23 153.31 3.20L153.31 3.20L153.31 3.20Q153.73 3.16 154.29 3.30L154.29 3.30ZM159.98 3.36L161.49 3.36L158.82 10.12L158.82 10.12Q158.51 10.93 158.02 11.56L158.02 11.56L158.02 11.56Q157.81 11.83 157.53 12.09L157.53 12.09L157.53 12.09Q157.25 12.35 156.90 12.54L156.90 12.54L156.90 12.54Q156.55 12.74 156.13 12.87L156.13 12.87L156.13 12.87Q155.71 12.99 155.20 12.99L155.20 12.99L155.20 11.90L155.20 11.90Q155.95 11.90 156.39 11.62L156.39 11.62L156.39 11.62Q156.83 11.34 157.07 10.99L157.07 10.99L157.07 10.99Q157.33 10.60 157.44 10.08L157.44 10.08L154.73 3.36L156.24 3.36L158.14 9.18L159.98 3.36Z"></path></g><!----><!----></svg>