<svg data-v-423bf9ae="" xmlns="http://www.w3.org/2000/svg" viewBox="0 0 370.50631185511713 165" class="iconAbove"><!----><!----><!----><g data-v-423bf9ae="" id="09d92d23-e83f-4b84-952c-2e4a15038d0b" fill="black" transform="matrix(4.21940920346668,0,0,4.21940920346668,-2.10970195995597,103.16894573683976)"><path d="M2.41 5.90L2.41 5.90L2.41 5.90Q2.41 7.55 3.35 8.66L3.35 8.66L3.35 8.66Q4.29 9.76 5.73 9.76L5.73 9.76L5.73 9.76Q6.41 9.76 6.90 9.59L6.90 9.59L6.90 9.59Q7.08 9.53 7.23 9.47L7.23 9.47L7.23 9.47Q7.49 9.37 7.69 9.28L7.69 9.28L7.69 7.71L7.63 6.49L6.64 6.35L6.64 5.89L10.04 5.89L10.04 6.34L9.46 6.51L9.44 9.16L9.98 9.51L9.98 9.51Q9.54 9.81 9.04 10.06L9.04 10.06L9.04 10.06Q8.54 10.31 7.98 10.49L7.98 10.49L7.98 10.49Q7.41 10.68 6.82 10.77L6.82 10.77L6.82 10.77Q6.22 10.87 5.59 10.87L5.59 10.87L5.59 10.87Q3.35 10.87 1.92 9.50L1.92 9.50L1.92 9.50Q0.50 8.13 0.50 6.02L0.50 6.02L0.50 6.02Q0.50 3.99 2.07 2.58L2.07 2.58L2.07 2.58Q3.65 1.17 5.93 1.17L5.93 1.17L5.93 1.17Q6.46 1.17 6.86 1.20L6.86 1.20L6.86 1.20Q7.27 1.24 7.67 1.35L7.67 1.35L7.67 1.35Q8.47 1.54 8.98 1.75L8.98 1.75L8.70 2.76L8.52 3.74L8.09 3.69L7.99 2.86L7.99 2.86Q7.53 2.62 6.85 2.43L6.85 2.43L6.85 2.43Q6.51 2.35 6.21 2.31L6.21 2.31L6.21 2.31Q5.91 2.26 5.59 2.26L5.59 2.26L5.59 2.26Q4.18 2.26 3.29 3.28L3.29 3.28L3.29 3.28Q2.41 4.29 2.41 5.90ZM18.73 7.03L18.73 7.03L18.73 7.03Q18.73 8.75 17.66 9.79L17.66 9.79L17.66 9.79Q16.59 10.84 14.81 10.84L14.81 10.84L14.81 10.84Q13.06 10.84 11.99 9.79L11.99 9.79L11.99 9.79Q10.91 8.75 10.91 7.03L10.91 7.03L10.91 7.03Q10.91 5.33 11.99 4.27L11.99 4.27L11.99 4.27Q13.07 3.22 14.81 3.22L14.81 3.22L14.81 3.22Q16.59 3.22 17.66 4.27L17.66 4.27L17.66 4.27Q18.73 5.31 18.73 7.03ZM16.99 7.03L16.99 7.03L16.99 7.03Q16.99 5.71 16.40 4.90L16.40 4.90L16.40 4.90Q15.81 4.09 14.81 4.09L14.81 4.09L14.81 4.09Q13.82 4.09 13.24 4.89L13.24 4.89L13.24 4.89Q12.65 5.70 12.65 7.03L12.65 7.03L12.65 7.03Q12.65 8.33 13.24 9.15L13.24 9.15L13.24 9.15Q13.83 9.97 14.81 9.97L14.81 9.97L14.81 9.97Q15.79 9.97 16.39 9.17L16.39 9.17L16.39 9.17Q16.99 8.36 16.99 7.03ZM19.22 1.22L18.34 1.05L18.34 0.56L20.51 0.20L21.13 0.20L21.02 1.25L20.99 2.12L20.99 7.94L20.99 7.94Q20.99 8.35 21.01 8.72L21.01 8.72L21.01 8.72Q21.02 9.08 21.07 9.53L21.07 9.53L21.07 9.53Q21.11 9.98 21.14 10.04L21.14 10.04L21.89 10.20L21.89 10.68L20.17 10.64L18.46 10.68L18.46 10.20L19.19 10.04L19.19 10.04Q19.22 10.02 19.25 9.84L19.25 9.84L19.25 9.84Q19.28 9.66 19.28 9.39L19.28 9.39L19.28 9.39Q19.30 9.09 19.33 8.70L19.33 8.70L19.33 8.70Q19.35 8.32 19.35 7.94L19.35 7.94L19.35 3.42L19.35 3.42Q19.35 3.13 19.33 2.78L19.33 2.78L19.33 2.78Q19.31 2.42 19.30 1.99L19.30 1.99L19.30 1.99Q19.30 1.73 19.28 1.53L19.28 1.53L19.28 1.53Q19.25 1.32 19.22 1.22L19.22 1.22ZM27.03 10.68L27.03 9.48L27.03 9.48Q26.57 10.20 26.00 10.52L26.00 10.52L26.00 10.52Q25.44 10.84 24.82 10.84L24.82 10.84L24.82 10.84Q23.45 10.84 22.61 9.88L22.61 9.88L22.61 9.88Q21.77 8.92 21.77 7.39L21.77 7.39L21.77 7.39Q21.77 5.54 22.88 4.38L22.88 4.38L22.88 4.38Q23.98 3.22 25.75 3.22L25.75 3.22L25.75 3.22Q26.11 3.22 26.38 3.28L26.38 3.28L26.92 3.35L26.92 3.42L26.88 1.99L26.88 1.99Q26.88 1.68 26.86 1.52L26.86 1.52L26.86 1.52Q26.83 1.36 26.78 1.22L26.78 1.22L25.90 1.05L25.90 0.56L28.07 0.20L28.68 0.20L28.58 1.25L28.55 2.12L28.55 7.98L28.55 7.98Q28.55 8.38 28.57 8.75L28.57 8.75L28.57 8.75Q28.58 9.11 28.60 9.33L28.60 9.33L28.60 9.33Q28.60 9.78 28.70 10.04L28.70 10.04L28.70 10.04Q28.81 10.04 28.86 10.06L28.86 10.06L28.86 10.06Q28.92 10.07 29.07 10.10L29.07 10.10L29.45 10.20L29.45 10.68L28.25 10.64L27.03 10.68ZM26.94 6.84L26.94 6.84L26.94 4.48L26.94 4.48Q26.82 4.40 26.49 4.28L26.49 4.28L26.49 4.28Q26.17 4.17 25.61 4.17L25.61 4.17L25.61 4.17Q24.56 4.17 24.04 4.85L24.04 4.85L24.04 4.85Q23.52 5.53 23.52 6.85L23.52 6.85L23.52 6.85Q23.52 8.15 23.98 8.90L23.98 8.90L23.98 8.90Q24.45 9.65 25.35 9.65L25.35 9.65L25.35 9.65Q26.18 9.65 26.56 8.92L26.56 8.92L26.56 8.92Q26.94 8.19 26.94 6.84ZM35.74 8.42L36.27 8.92L36.27 8.92Q36.02 9.28 35.69 9.60L35.69 9.60L35.69 9.60Q35.35 9.93 34.87 10.23L34.87 10.23L34.87 10.23Q33.93 10.84 32.87 10.84L32.87 10.84L32.87 10.84Q31.16 10.84 30.18 9.85L30.18 9.85L30.18 9.85Q29.20 8.86 29.20 7.11L29.20 7.11L29.20 7.11Q29.20 5.50 30.36 4.36L30.36 4.36L30.36 4.36Q31.51 3.22 33.15 3.22L33.15 3.22L33.15 3.22Q34.49 3.22 35.32 4.02L35.32 4.02L35.32 4.02Q36.15 4.83 36.15 6.08L36.15 6.08L36.15 6.49L31.04 6.49L31.04 6.49Q31.04 8.03 31.59 8.84L31.59 8.84L31.59 8.84Q32.15 9.65 33.34 9.65L33.34 9.65L33.34 9.65Q34.16 9.65 34.80 9.21L34.80 9.21L34.80 9.21Q35.43 8.77 35.74 8.42L35.74 8.42ZM31.09 5.79L31.09 5.79L34.39 5.64L34.39 5.48L34.39 5.48Q34.39 4.77 34.05 4.38L34.05 4.38L34.05 4.38Q33.72 4.00 33.04 4.00L33.04 4.00L33.04 4.00Q32.15 4.00 31.57 4.67L31.57 4.67L31.57 4.67Q31.24 5.10 31.09 5.79ZM43.27 5.43L43.27 7.94L43.27 7.94Q43.27 8.35 43.29 8.72L43.29 8.72L43.29 8.72Q43.30 9.08 43.35 9.53L43.35 9.53L43.35 9.53Q43.39 9.98 43.42 10.04L43.42 10.04L44.17 10.20L44.17 10.68L42.46 10.64L41.65 10.68L41.65 10.20L41.64 10.04L41.64 6.43L41.64 6.43Q41.64 5.40 41.33 4.90L41.33 4.90L41.33 4.90Q41.06 4.40 40.31 4.40L40.31 4.40L40.31 4.40Q39.56 4.40 39.09 5.04L39.09 5.04L39.09 5.04Q38.68 5.67 38.68 6.73L38.68 6.73L38.68 7.94L38.68 7.94Q38.68 8.42 38.69 8.75L38.69 8.75L38.69 8.75Q38.70 9.08 38.75 9.39L38.75 9.39L38.82 10.04L39.57 10.20L39.57 10.68L37.87 10.64L36.15 10.68L36.15 10.20L36.90 10.04L36.97 9.39L36.97 9.39Q37.00 9.09 37.02 8.70L37.02 8.70L37.02 8.70Q37.04 8.32 37.04 7.94L37.04 7.94L37.04 6.40L37.04 6.22L37.04 6.06L37.04 6.06Q37.04 5.81 37.03 5.55L37.03 5.55L37.03 5.55Q37.02 5.28 36.98 5.03L36.98 5.03L36.91 4.19L36.03 4.02L36.03 3.54L36.03 3.54Q36.34 3.54 36.59 3.50L36.59 3.50L36.59 3.50Q36.96 3.43 37.14 3.41L37.14 3.41L37.14 3.41Q37.64 3.32 37.76 3.30L37.76 3.30L37.76 3.30Q37.88 3.28 38.25 3.17L38.25 3.17L38.74 3.17L38.68 4.48L38.68 4.48Q39.21 3.84 39.83 3.53L39.83 3.53L39.83 3.53Q40.45 3.22 41.15 3.22L41.15 3.22L41.15 3.22Q42.12 3.22 42.70 3.82L42.70 3.82L42.70 3.82Q43.27 4.43 43.27 5.43L43.27 5.43ZM51.59 3.82L51.59 8.20L51.70 10.04L52.57 10.20L52.57 10.68L50.72 10.64L48.87 10.68L48.87 10.20L49.73 10.04L49.84 8.20L49.84 3.82L49.73 1.98L48.87 1.83L48.87 1.35L50.72 1.38L52.57 1.35L52.57 1.83L51.70 1.98L51.59 3.82ZM64.85 5.43L64.85 7.94L64.85 7.94Q64.85 8.42 64.86 8.75L64.86 8.75L64.86 8.75Q64.88 9.08 64.92 9.39L64.92 9.39L65.00 10.04L65.75 10.20L65.75 10.68L64.04 10.64L63.22 10.68L63.22 6.43L63.22 6.43Q63.22 5.42 62.95 4.90L62.95 4.90L62.95 4.90Q62.65 4.40 61.95 4.40L61.95 4.40L61.95 4.40Q61.24 4.40 60.79 5.04L60.79 5.04L60.79 5.04Q60.38 5.68 60.38 6.73L60.38 6.73L60.38 7.94L60.38 7.94Q60.38 8.42 60.40 8.75L60.40 8.75L60.40 8.75Q60.41 9.08 60.46 9.39L60.46 9.39L60.53 10.04L61.28 10.20L61.28 10.68L59.57 10.64L57.87 10.68L57.87 10.20L58.62 10.04L58.68 9.39L58.68 9.39Q58.75 8.79 58.75 7.94L58.75 7.94L58.75 6.43L58.75 6.43Q58.75 5.42 58.48 4.90L58.48 4.90L58.48 4.90Q58.18 4.40 57.48 4.40L57.48 4.40L57.48 4.40Q56.74 4.40 56.33 5.04L56.33 5.04L56.33 5.04Q55.92 5.68 55.92 6.73L55.92 6.73L55.92 7.94L55.92 7.94Q55.92 8.35 55.93 8.72L55.93 8.72L55.93 8.72Q55.94 9.08 55.99 9.53L55.99 9.53L55.99 9.53Q56.04 9.98 56.06 10.04L56.06 10.04L56.81 10.20L56.81 10.68L55.11 10.64L53.39 10.68L53.39 10.20L54.14 10.04L54.21 9.39L54.21 9.39Q54.24 9.09 54.26 8.70L54.26 8.70L54.26 8.70Q54.28 8.32 54.28 7.94L54.28 7.94L54.28 6.40L54.28 6.22L54.28 6.06L54.28 6.06Q54.28 5.81 54.27 5.55L54.27 5.55L54.27 5.55Q54.26 5.28 54.22 5.03L54.22 5.03L54.15 4.19L53.27 4.02L53.27 3.54L53.27 3.54Q53.57 3.54 53.82 3.50L53.82 3.50L53.82 3.50Q54.19 3.43 54.37 3.41L54.37 3.41L54.37 3.41Q54.76 3.35 54.95 3.31L54.95 3.31L54.95 3.31Q55.14 3.26 55.49 3.17L55.49 3.17L55.98 3.17L55.92 4.48L55.92 4.48Q56.45 3.84 57.04 3.53L57.04 3.53L57.04 3.53Q57.62 3.22 58.31 3.22L58.31 3.22L58.31 3.22Q59.06 3.22 59.56 3.59L59.56 3.59L59.56 3.59Q60.05 3.97 60.25 4.58L60.25 4.58L60.25 4.58Q60.42 4.33 60.63 4.11L60.63 4.11L60.63 4.11Q60.85 3.90 61.18 3.66L61.18 3.66L61.18 3.66Q61.78 3.22 62.79 3.22L62.79 3.22L62.79 3.22Q63.72 3.22 64.29 3.82L64.29 3.82L64.29 3.82Q64.85 4.43 64.85 5.43L64.85 5.43ZM71.12 6.87L71.12 6.87L70.63 6.87L70.63 6.87Q69.99 6.87 69.46 7.02L69.46 7.02L69.46 7.02Q68.93 7.17 68.55 7.45L68.55 7.45L68.55 7.45Q67.80 7.91 67.80 8.69L67.80 8.69L67.80 8.69Q67.80 9.04 68.14 9.35L68.14 9.35L68.14 9.35Q68.49 9.65 69.06 9.65L69.06 9.65L69.06 9.65Q70.01 9.65 70.57 8.85L70.57 8.85L70.57 8.85Q71.12 8.04 71.12 6.87ZM71.29 9.04L71.29 9.04L71.29 9.04Q70.60 10.23 69.86 10.54L69.86 10.54L69.86 10.54Q69.12 10.85 68.36 10.85L68.36 10.85L68.36 10.85Q67.33 10.85 66.69 10.28L66.69 10.28L66.69 10.28Q66.06 9.70 66.06 8.89L66.06 8.89L66.06 8.89Q66.06 7.58 67.40 6.83L67.40 6.83L67.40 6.83Q68.74 6.09 71.12 6.09L71.12 6.09L71.12 5.35L71.12 5.35Q71.12 4.65 70.77 4.41L70.77 4.41L70.77 4.41Q70.42 4.17 69.62 4.17L69.62 4.17L69.62 4.17Q68.81 4.17 68.28 4.36L68.28 4.36L68.28 4.36Q67.99 4.47 67.80 4.55L67.80 4.55L67.80 4.55Q67.76 4.56 67.71 4.59L67.71 4.59L67.71 5.28L67.24 5.43L66.53 3.85L67.51 3.54L67.51 3.54Q68.47 3.22 69.95 3.22L69.95 3.22L69.95 3.22Q72.24 3.22 72.57 4.58L72.57 4.58L72.57 4.58Q72.90 5.93 72.90 9.58L72.90 9.58L72.90 9.81L73.62 10.18L73.62 10.68L72.62 10.66L72.20 10.65L71.42 10.69L71.42 10.69Q71.39 10.63 71.37 10.53L71.37 10.53L71.37 10.53Q71.35 10.43 71.35 10.21L71.35 10.21L71.35 10.21Q71.35 9.97 71.33 9.68L71.33 9.68L71.33 9.68Q71.32 9.39 71.29 9.04ZM77.29 4.22L77.29 4.22L77.29 4.22Q76.57 4.22 76.09 4.74L76.09 4.74L76.09 4.74Q75.62 5.27 75.62 6.08L75.62 6.08L75.62 6.08Q75.62 6.87 76.08 7.38L76.08 7.38L76.08 7.38Q76.54 7.88 77.29 7.88L77.29 7.88L77.29 7.88Q77.98 7.88 78.48 7.36L78.48 7.36L78.48 7.36Q78.72 7.10 78.85 6.78L78.85 6.78L78.85 6.78Q78.97 6.46 78.97 6.08L78.97 6.08L78.97 6.08Q78.97 5.22 78.52 4.73L78.52 4.73L78.52 4.73Q78.09 4.22 77.29 4.22ZM73.94 6.05L73.94 6.05L73.94 6.05Q73.94 4.87 74.89 4.11L74.89 4.11L74.89 4.11Q75.84 3.35 77.29 3.35L77.29 3.35L77.29 3.35Q77.42 3.35 77.55 3.35L77.55 3.35L77.55 3.35Q77.69 3.35 77.80 3.38L77.80 3.38L77.85 3.40L78.27 3.46L78.27 3.46Q78.76 3.54 79.10 3.59L79.10 3.59L79.10 3.59Q79.44 3.63 79.77 3.67L79.77 3.67L79.77 3.67Q80.12 3.67 80.65 3.70L80.65 3.70L80.65 3.70Q81.19 3.73 81.28 3.73L81.28 3.73L81.30 3.96L81.30 4.21L80.83 4.33L80.83 4.33Q80.65 4.37 80.46 4.41L80.46 4.41L80.46 4.41Q80.26 4.44 80.10 4.44L80.10 4.44L80.01 4.44L80.01 4.44Q80.64 5.10 80.64 6.05L80.64 6.05L80.64 6.05Q80.64 7.15 79.67 7.94L79.67 7.94L79.67 7.94Q78.70 8.73 77.29 8.73L77.29 8.73L77.29 8.73Q76.49 8.73 76.09 8.60L76.09 8.60L76.09 8.60Q76.09 8.67 75.86 9.11L75.86 9.11L75.86 9.11Q75.74 9.38 75.68 9.59L75.68 9.59L75.68 9.59Q75.62 9.79 75.62 9.98L75.62 9.98L75.99 9.87L75.99 9.87Q76.23 9.78 76.58 9.74L76.58 9.74L76.58 9.74Q76.93 9.70 77.49 9.70L77.49 9.70L77.49 9.70Q78.97 9.70 80.00 10.21L80.00 10.21L80.00 10.21Q81.03 10.71 81.03 11.78L81.03 11.78L81.03 11.78Q81.03 12.92 79.82 13.67L79.82 13.67L79.82 13.67Q78.61 14.42 77.03 14.42L77.03 14.42L77.03 14.42Q75.61 14.42 74.68 13.86L74.68 13.86L74.68 13.86Q73.74 13.30 73.74 12.49L73.74 12.49L73.74 12.49Q73.74 12.09 73.92 11.83L73.92 11.83L73.92 11.83Q74.02 11.71 74.11 11.61L74.11 11.61L74.11 11.61Q74.16 11.55 74.34 11.40L74.34 11.40L75.16 11.87L75.06 12.11L75.06 12.11Q75.06 12.55 75.73 13.01L75.73 13.01L75.73 13.01Q76.08 13.24 76.53 13.36L76.53 13.36L76.53 13.36Q76.98 13.48 77.59 13.48L77.59 13.48L77.59 13.48Q78.20 13.48 78.76 13.16L78.76 13.16L78.76 13.16Q79.33 12.84 79.33 12.31L79.33 12.31L79.33 12.31Q79.33 11.64 78.38 11.27L78.38 11.27L78.38 11.27Q77.98 11.12 77.32 11.12L77.32 11.12L77.32 11.12Q76.90 11.12 76.40 11.18L76.40 11.18L76.40 11.18Q75.90 11.25 75.33 11.38L75.33 11.38L74.41 10.40L74.41 10.40Q74.41 10.27 74.81 9.37L74.81 9.37L74.81 9.37Q75.22 8.47 75.25 8.32L75.25 8.32L74.84 8.04L74.84 8.04Q73.94 7.33 73.94 6.05ZM87.79 8.42L88.31 8.92L88.31 8.92Q88.06 9.28 87.73 9.60L87.73 9.60L87.73 9.60Q87.40 9.93 86.92 10.23L86.92 10.23L86.92 10.23Q85.98 10.84 84.92 10.84L84.92 10.84L84.92 10.84Q83.20 10.84 82.22 9.85L82.22 9.85L82.22 9.85Q81.25 8.86 81.25 7.11L81.25 7.11L81.25 7.11Q81.25 5.50 82.40 4.36L82.40 4.36L82.40 4.36Q83.56 3.22 85.19 3.22L85.19 3.22L85.19 3.22Q86.54 3.22 87.37 4.02L87.37 4.02L87.37 4.02Q88.19 4.83 88.19 6.08L88.19 6.08L88.19 6.49L83.08 6.49L83.08 6.49Q83.08 8.03 83.64 8.84L83.64 8.84L83.64 8.84Q84.19 9.65 85.38 9.65L85.38 9.65L85.38 9.65Q86.20 9.65 86.84 9.21L86.84 9.21L86.84 9.21Q87.48 8.77 87.79 8.42L87.79 8.42ZM83.13 5.79L83.13 5.79L86.43 5.64L86.43 5.48L86.43 5.48Q86.43 4.77 86.10 4.38L86.10 4.38L86.10 4.38Q85.76 4.00 85.08 4.00L85.08 4.00L85.08 4.00Q84.19 4.00 83.62 4.67L83.62 4.67L83.62 4.67Q83.29 5.10 83.13 5.79Z"></path></g><!----><g data-v-423bf9ae="" id="b3f633ab-7f48-469d-af3c-3f687f0e63fa" transform="matrix(1.005611080593533,0,0,1.005611080593533,135.46851450546853,-5.538660932980001)" stroke="none" fill="black"><path d="M29.115 93.079h3.134a4.406 4.406 0 0 0 4.405-4.405l-.006-6.932a3.173 3.173 0 0 1 3.174-3.173h3.066l17.872.003c8.327-.048 15.063-6.812 15.063-15.149 0-8.409-6.786-15.107-15.15-15.149l-29.928.001H14.863c-6.098 0-11.04 4.943-11.04 11.041v22.722c0 6.099 4.942 11.042 11.04 11.042h14.252v-.001zM.648 59.315c0-7.851 6.364-14.216 14.215-14.216l63.292.001v51.152H14.863C7.012 96.252.648 89.888.648 82.036V59.315zm47.831 4.014c0 6.732 5.457 12.19 12.19 12.19s12.191-5.458 12.191-12.19-5.458-12.191-12.191-12.191-12.19 5.459-12.19 12.191zM6.853 68.007a7.687 7.687 0 0 0 7.688 7.688 7.687 7.687 0 0 0 7.688-7.688 7.687 7.687 0 0 0-7.688-7.688 7.687 7.687 0 0 0-7.688 7.688zm8.01-18.5h15.883l29.925-.001c7.691.038 13.922 6.192 13.922 13.917 0 7.659-6.186 13.875-13.836 13.92l-17.868-.005h-3.066a4.405 4.405 0 0 0-4.406 4.404l.007 6.932a3.173 3.173 0 0 1-3.174 3.172H14.863c-5.417 0-9.808-4.391-9.808-9.809V59.315c.001-5.417 4.391-9.808 9.808-9.808zm36.49 13.822c0-5.146 4.172-9.317 9.316-9.317 5.146 0 9.316 4.172 9.316 9.317 0 5.145-4.171 9.314-9.316 9.314a9.314 9.314 0 0 1-9.316-9.314zM10.03 68.007a4.51 4.51 0 1 1 9.022 0 4.51 4.51 0 0 1-9.022 0zm51.483-62.26h4.673c3.077 8.684 5.351 20.466 6.253 33.693 2.752 1.09 3 3.19 3 3.19v1.193H26.843v-1.101s.094-1.25 2.536-1.434c.446-.035 1.981-.149 4.218-.311l1.502-26.043h26.96l-.546-9.187zm25.968 44.162h1.314l2.258 1.982 8.098.006v35.674h-8.098l-2.258 1.983h-1.314l-2.51 2.202h-5.577v-44.05h5.577l2.51 2.203z"></path></g><!----></svg>